<?xml version="1.0" standalone="no"?>
<!DOCTYPE svg PUBLIC "-//W3C//DTD SVG 20010904//EN"
 "http://www.w3.org/TR/2001/REC-SVG-20010904/DTD/svg10.dtd">
<svg version="1.0" xmlns="http://www.w3.org/2000/svg"
 width="512.000000pt" height="512.000000pt" viewBox="0 0 512.000000 512.000000"
 preserveAspectRatio="xMidYMid meet">
<metadata>
Created by potrace 1.14, written by Peter Selinger 2001-2017
</metadata>
<g transform="translate(0.000000,512.000000) scale(0.100000,-0.100000)"
fill="#000000" stroke="none">
<path d="M2277 4895 c-523 -66 -1019 -309 -1391 -681 -295 -294 -515 -677
-615 -1067 -183 -712 -39 -1433 404 -2022 299 -399 752 -709 1233 -846 261
-74 606 -105 872 -80 675 65 1282 402 1684 935 235 311 386 660 452 1046 21
128 30 485 15 621 -92 805 -572 1500 -1287 1857 -240 120 -427 181 -704 228
-131 22 -519 28 -663 9z m480 -96 c542 -45 1037 -273 1418 -654 503 -503 738
-1206 638 -1910 -129 -913 -817 -1666 -1718 -1878 -335 -80 -731 -77 -1062 7
-900 229 -1571 986 -1688 1905 -22 168 -16 506 10 646 58 315 177 623 332 860
455 695 1258 1092 2070 1024z"/>
<path d="M3420 3453 c-39 -98 -75 -182 -80 -186 -4 -5 -40 73 -80 172 l-72
181 -49 0 -49 0 0 -235 0 -235 45 0 45 0 1 133 c1 72 3 124 6 115 2 -10 26
-68 53 -130 l49 -113 48 -3 48 -3 55 132 55 131 3 -131 3 -131 44 0 45 0 0
240 0 240 -49 0 -48 0 -73 -177z"/>
<path d="M1620 3380 l0 -240 50 0 50 0 0 93 c0 86 2 95 25 117 l24 23 20 -34
c11 -19 42 -70 69 -114 l48 -80 52 -3 c29 -2 52 0 52 4 0 3 -36 66 -80 139
-44 73 -83 140 -86 149 -5 13 15 40 77 102 l84 84 -62 0 -61 0 -81 -87 -81
-88 0 88 0 87 -50 0 -50 0 0 -240z"/>
<path d="M931 2683 l-43 -4 7 -47 c51 -357 197 -726 401 -1014 81 -114 279
-310 389 -384 172 -117 343 -190 555 -235 91 -20 133 -23 325 -23 190 0 234 3
325 23 148 31 265 73 392 138 479 244 841 794 953 1447 8 49 14 90 12 92 -1 1
-25 6 -52 9 l-50 7 -27 -140 c-117 -606 -456 -1106 -903 -1330 -392 -196 -908
-196 -1300 1 -443 222 -770 704 -895 1319 -11 53 -20 108 -20 122 0 15 -5 25
-12 24 -7 -1 -33 -3 -57 -5z"/>
</g>
</svg>
