<svg xmlns="http://www.w3.org/2000/svg" viewBox="0 0 114.13 113.45"><defs><style>.cls-1{fill:#1d1d1b;}</style></defs><g id="Ebene_2" data-name="Ebene 2"><g id="Druck"><path class="cls-1" d="M57.12,0C25.65,0,0,25.5,0,56.78a56.82,56.82,0,0,0,57,56.67c31.46,0,57.09-25.5,57.12-56.78A56.83,56.83,0,0,0,57.12,0ZM57,110.92a54.2,54.2,0,1,1,54.57-54.25A54.29,54.29,0,0,1,57,110.92Z"/><path class="cls-1" d="M94.86,53.38C93.34,66.8,83.49,92.19,57,92.22S20.77,66.87,19.28,53.45l-2.53.28c1.57,14.2,12,41.05,40.28,41S95.78,67.86,97.39,53.66Z"/><polygon class="cls-1" points="71.66 35.41 71.97 36.39 72.22 37.17 74.48 42.45 76.57 42.44 78.84 37.16 79.09 36.39 79.41 35.4 79.4 42.44 81.52 42.44 81.53 30.92 79.23 30.92 75.53 40.08 71.85 30.93 69.55 30.93 69.54 42.45 71.65 42.45 71.66 35.41"/><path class="cls-1" d="M36.56,38.16l1.24-1.31,3.39,5.63h2.55l-4.37-7.24L43.48,31H40.72l-3.25,3.43-.31.36-.6.66V31H34.38V42.48h2.18Z"/></g></g></svg>