<?xml version="1.0" encoding="utf-8"?>
<!-- Generator: Adobe Illustrator 25.3.1, SVG Export Plug-In . SVG Version: 6.00 Build 0)  -->
<svg version="1.1" id="Layer_1" xmlns="http://www.w3.org/2000/svg" xmlns:xlink="http://www.w3.org/1999/xlink" x="0px" y="0px"
	 viewBox="0 0 1024 1024" style="enable-background:new 0 0 1024 1024;" xml:space="preserve">
<style type="text/css">
	.st0{fill:none;stroke:#000000;stroke-width:15;}
</style>
<circle class="st0" cx="512" cy="512" r="327.7"/>
<path class="st0" d="M420.2,394c0,8.6-2.4,15.9-5.5,20.5c-3.2,4.8-6.1,5.7-7.6,5.7c-1.5,0-4.4-0.9-7.6-5.7
	c-3.1-4.7-5.5-11.9-5.5-20.5c0-8.6,2.4-15.9,5.5-20.5c3.2-4.8,6.1-5.7,7.6-5.7c1.5,0,4.4,0.9,7.6,5.7
	C417.9,378.2,420.2,385.4,420.2,394z"/>
<path class="st0" d="M616.9,394c0,8.6-2.4,15.9-5.5,20.5c-3.2,4.8-6.1,5.7-7.6,5.7c-1.5,0-4.4-0.9-7.6-5.7
	c-3.1-4.7-5.5-11.9-5.5-20.5c0-8.6,2.4-15.9,5.5-20.5c3.2-4.8,6.1-5.7,7.6-5.7c1.5,0,4.4,0.9,7.6,5.7
	C614.5,378.2,616.9,385.4,616.9,394z"/>
<path class="st0" d="M289.2,485.8c8.7,78.6,66.8,235.9,229.4,235.9s220.6-157.3,229.4-235.9"/>
</svg>
